<svg width="160" height="32" viewBox="0 0 160 32" fill="none" xmlns="http://www.w3.org/2000/svg">
<path d="M14.762 19.9398L1.254 0.00249769H7.341L14.761 10.9143L22.183 0.00151367H29.437V27.939H24.017V6.23826L14.763 19.9408L14.762 19.9398ZM5.42 27.9803H0V21.7445L5.42 13.7296V27.9803ZM36.772 27.9803V0.00249769H42.192V20.7605L56.199 0.00249769H62.536V27.9803H57.283V7.55686L43.359 27.9803H36.772ZM103.381 27.9803V0.00249769H108.801V20.7605L122.809 0.00249769H129.145V27.9803H123.892V7.72316L110.137 27.9803H103.381ZM147.163 0.00249769C154.902 -0.118537 158.731 4.18854 160.001 6.56594L155.803 8.80952C153.739 4.71598 149.497 4.10883 147.163 4.2338C143.764 4.41388 138.236 6.86017 138.236 14.1459C138.236 21.4306 144.324 23.4676 147.368 23.5748C152.249 23.5748 154.999 20.6897 155.778 19.1172L160.001 21.4611C156.528 27.199 150.726 27.9262 147.368 27.9262C137.253 27.9262 133.118 19.6259 133.118 14.1459C133.118 5.48253 139.506 0.00249769 147.163 0.00249769Z" fill="#FC4C00"/>
<path fill-rule="evenodd" clip-rule="evenodd" d="M72.041 32.0001V27.8652H93.844V31.9588H99.305V23.4765H94.72V0.00256348H73.374C73.333 20.7192 70.164 23.4765 69.289 23.4765H66.538V32.0001H72.041ZM89.384 4.35097H78.46C78.21 17.3145 76.042 22.8201 75.125 23.4765H89.382V4.35097H89.384Z" fill="#FC4C00"/>
</svg>
